<svg width="152" height="128" viewBox="0 0 152 128" fill="none" xmlns="http://www.w3.org/2000/svg">
<g filter="url(#filter0_d_0_52007)">
<path fill-rule="evenodd" clip-rule="evenodd" d="M76.0142 72.0708C61.7824 72.0708 50.2451 60.893 50.2451 47.1043C50.2451 33.3155 61.7824 22.1377 76.0142 22.1377C90.246 22.1377 101.783 33.3155 101.783 47.1043C101.783 60.893 90.246 72.0708 76.0142 72.0708Z" fill="url(#paint0_linear_0_52007)"/>
</g>
<mask id="mask0_0_52007" style="mask-type:alpha" maskUnits="userSpaceOnUse" x="75" y="22" width="27" height="50">
<path fill-rule="evenodd" clip-rule="evenodd" d="M75.3579 22H101.982V71.9331H75.3579V22Z" fill="white"/>
</mask>
<g mask="url(#mask0_0_52007)">
<path fill-rule="evenodd" clip-rule="evenodd" d="M100.272 46.9666C100.272 60.478 89.1937 71.4808 75.3579 71.918C75.642 71.927 75.9267 71.9331 76.213 71.9331C90.4448 71.9331 101.982 60.7553 101.982 46.9666C101.982 33.1778 90.4448 22 76.213 22C75.9267 22 75.642 22.0061 75.3579 22.0151C89.1937 22.4524 100.272 33.4552 100.272 46.9666Z" fill="#7F0404"/>
</g>
<path fill-rule="evenodd" clip-rule="evenodd" d="M86.1068 48.1207C85.3987 51.2271 82.3209 50.7188 82.3209 50.7188C78.9981 50.3235 79.2979 46.4545 79.2979 46.4545H86.1612L86.1068 48.1207ZM70.3393 50.7188C70.3393 50.7188 67.2615 51.2271 66.5535 48.1207L66.4991 46.4545H73.3624C73.3624 46.4545 73.6622 50.3235 70.3393 50.7188ZM66.3629 41.0606C66.3629 41.0606 64.8647 41.1168 64.8647 39.8179V38.3774H61.2698V43.0655H56.7212V46.3132H61.2151V47.8946H56.7756V51.1991L61.7599 51.1708C61.7599 51.1708 63.1218 57.2708 69.6039 57.2708C69.6039 57.2708 74.2698 57.6536 76.3299 53.4854C78.3903 57.6536 83.0561 57.2708 83.0561 57.2708C89.5382 57.2708 90.9002 51.1708 90.9002 51.1708L95.8844 51.1991V47.8946H91.445V46.3132H95.9389V43.0655H91.3903V38.3774H87.7953V39.8179C87.7953 41.1168 86.2972 41.0606 86.2972 41.0606H66.3629Z" fill="#7F0404"/>
<path fill-rule="evenodd" clip-rule="evenodd" d="M91.39 38.3777L90.4108 36.7983L89.854 38.8464L91.39 38.3777Z" fill="#7F0404"/>
<path fill-rule="evenodd" clip-rule="evenodd" d="M95.9423 43.0784L94.9631 41.499L94.4062 43.5471L95.9423 43.0784Z" fill="#7F0404"/>
<path fill-rule="evenodd" clip-rule="evenodd" d="M95.8876 47.8924L94.9084 46.313L94.3516 48.3611L95.8876 47.8924Z" fill="#7F0404"/>
<path fill-rule="evenodd" clip-rule="evenodd" d="M55.7417 44.7338L56.7209 46.3132L57.7922 45.2019L56.8854 43.9985L55.7417 44.7338Z" fill="#7F0404"/>
<path fill-rule="evenodd" clip-rule="evenodd" d="M55.7959 49.6224L56.7751 51.2018L57.8464 50.0905L56.9396 48.8872L55.7959 49.6224Z" fill="#7F0404"/>
<path fill-rule="evenodd" clip-rule="evenodd" d="M85.3906 46.9782C84.6825 50.0845 81.6047 49.5762 81.6047 49.5762C78.2819 49.1809 78.5816 45.3119 78.5816 45.3119H85.445L85.3906 46.9782ZM69.6231 49.5762C69.6231 49.5762 66.5453 50.0845 65.8373 46.9782L65.7829 45.3119H72.6462C72.6462 45.3119 72.946 49.1809 69.6231 49.5762ZM65.6466 39.918C65.6466 39.918 64.1484 39.9742 64.1484 38.6753V37.2349H60.5535V41.923H56.0049V45.1706H60.4988V46.752H56.0593V50.0565L61.0436 50.0282C61.0436 50.0282 62.4055 56.1282 68.8876 56.1282C68.8876 56.1282 73.5535 56.511 75.6136 52.3429C77.674 56.511 82.3398 56.1282 82.3398 56.1282C88.8219 56.1282 90.1839 50.0282 90.1839 50.0282L95.1681 50.0565V46.752H90.7287V45.1706H95.2225V41.923H90.674V37.2349H87.079V38.6753C87.079 39.9742 85.5809 39.918 85.5809 39.918H65.6466Z" fill="#CCCCCC"/>
<path fill-rule="evenodd" clip-rule="evenodd" d="M95.2228 41.9294L94.9597 41.4922L94.7012 42.1418L95.2228 41.9294Z" fill="#CCCCCC"/>
<path fill-rule="evenodd" clip-rule="evenodd" d="M90.6706 37.2282L90.4075 36.791L90.1489 37.4406L90.6706 37.2282Z" fill="#CCCCCC"/>
<path fill-rule="evenodd" clip-rule="evenodd" d="M95.1681 46.7522L94.905 46.3149L94.6465 46.9645L95.1681 46.7522Z" fill="#CCCCCC"/>
<path fill-rule="evenodd" clip-rule="evenodd" d="M55.7417 44.7338L56.0048 45.1711L56.2507 44.6377L55.7417 44.7338Z" fill="#CCCCCC"/>
<path fill-rule="evenodd" clip-rule="evenodd" d="M55.7959 49.6039L56.059 50.0412L56.3049 49.5078L55.7959 49.6039Z" fill="#CCCCCC"/>
<path fill-rule="evenodd" clip-rule="evenodd" d="M64.1485 37.2351L63.8854 36.7979L63.813 37.5861L64.1485 37.2351Z" fill="#CCCCCC"/>
<path fill-rule="evenodd" clip-rule="evenodd" d="M85.1273 46.5413C84.4192 49.6476 81.3414 49.1393 81.3414 49.1393C78.0186 48.744 78.3184 44.875 78.3184 44.875H85.1817L85.1273 46.5413ZM69.3598 49.1393C69.3598 49.1393 66.282 49.6476 65.574 46.5413L65.5196 44.875H72.3829C72.3829 44.875 72.6827 48.744 69.3598 49.1393ZM65.3834 39.481C65.3834 39.481 63.8852 39.5372 63.8852 38.2383V36.7979H60.2903V41.4859H55.7417V44.7336H60.2356V46.315H55.7961V49.6195L60.7804 49.5912C60.7804 49.5912 62.1423 55.6912 68.6244 55.6912C68.6244 55.6912 73.2903 56.074 75.3504 51.9058C77.4108 56.074 82.0766 55.6912 82.0766 55.6912C88.5587 55.6912 89.9207 49.5912 89.9207 49.5912L94.9049 49.6195V46.315H90.4655V44.7336H94.9594V41.4859H90.4108V36.7979H86.8158V38.2383C86.8158 39.5372 85.3177 39.481 85.3177 39.481H65.3834Z" fill="#F2F2F2"/>
<path fill-rule="evenodd" clip-rule="evenodd" d="M64.8644 38.3773L64.1479 37.2349V38.6753L64.8644 38.3773Z" fill="#7F0404"/>
<path fill-rule="evenodd" clip-rule="evenodd" d="M5.40663 87.5571C5.92602 87.5571 6.26185 87.7646 6.4758 88.2395L10.63 98.1178C10.7525 98.3849 10.9968 98.3253 10.9968 98.0287V88.447C10.9968 87.8537 11.3327 87.5571 11.9131 87.5571H15.3343C15.9455 87.5571 16.2509 87.8537 16.2509 88.447V107.433C16.2509 107.996 15.9455 108.323 15.3343 108.323H10.844C10.3246 108.323 9.98874 108.115 9.77509 107.64L5.62029 97.7619C5.49811 97.4948 5.25407 97.5541 5.25407 97.8507V107.433C5.25407 107.996 4.94863 108.323 4.33746 108.323H0.916005C0.335829 108.323 0 107.996 0 107.433V88.447C0 87.8537 0.335829 87.5571 0.916005 87.5571H5.40663Z" fill="#F2F2F2"/>
<path fill-rule="evenodd" clip-rule="evenodd" d="M28.8084 94.7358C28.8084 93.3117 28.5948 92.5999 26.5786 92.5999C24.5624 92.5999 24.3485 93.3117 24.3485 94.7358V97.9693C24.3485 98.5331 24.6846 98.8595 25.2651 98.8595H27.8921C28.503 98.8297 28.8084 98.5331 28.8084 97.9398V94.7358ZM34.0628 107.314C34.0628 107.967 33.7574 108.323 33.1465 108.323H29.725C29.1449 108.323 28.8087 108.026 28.8087 107.433V104.852C28.8087 104.258 28.5033 103.962 27.8924 103.962H25.2654C24.6849 103.962 24.3488 104.258 24.3488 104.852V107.433C24.3488 108.026 24.0434 108.323 23.4325 108.323H20.011C19.4309 108.323 19.0947 107.967 19.0947 107.314V94.7358C19.0947 90.9979 19.7056 87.0229 26.5789 87.0229C33.4519 87.0229 34.0628 90.9979 34.0628 94.7358V107.314Z" fill="#F2F2F2"/>
<path fill-rule="evenodd" clip-rule="evenodd" d="M53.8394 107.254C54.267 107.848 53.9919 108.323 53.2592 108.323H48.6771C48.1881 108.323 47.8523 108.145 47.5772 107.729L43.7895 102.093C43.6674 101.915 43.4841 101.915 43.3616 102.093L42.1092 103.754C42.0177 103.873 41.987 103.991 41.987 104.14V107.433C41.987 107.996 41.6816 108.323 41.0707 108.323H37.5882C37.008 108.323 36.6719 107.996 36.6719 107.433V88.447C36.6719 87.8537 37.008 87.5571 37.5882 87.5571H41.0707C41.6816 87.5571 41.987 87.8537 41.987 88.447V94.4094C41.987 94.7063 42.201 94.7656 42.3535 94.528L47.1496 88.1208C47.4247 87.7351 47.7605 87.5571 48.2492 87.5571H52.7702C53.5339 87.5571 53.7783 88.0317 53.3507 88.6545L47.18 96.9016C47.0885 97.0497 47.0578 97.1684 47.18 97.3168L53.8394 107.254Z" fill="#F2F2F2"/>
<path fill-rule="evenodd" clip-rule="evenodd" d="M66.2864 94.7358C66.2864 93.3117 66.0728 92.5999 64.0566 92.5999C62.0404 92.5999 61.8265 93.3117 61.8265 94.7358V97.9693C61.8265 98.5331 62.1626 98.8595 62.7431 98.8595H65.3701C65.981 98.8297 66.2864 98.5331 66.2864 97.9398V94.7358ZM71.5408 107.314C71.5408 107.967 71.2354 108.323 70.6245 108.323H67.2031C66.6229 108.323 66.2868 108.026 66.2868 107.433V104.852C66.2868 104.258 65.9813 103.962 65.3705 103.962H62.7434C62.1629 103.962 61.8268 104.258 61.8268 104.852V107.433C61.8268 108.026 61.5214 108.323 60.9105 108.323H57.4891C56.9089 108.323 56.5728 107.967 56.5728 107.314V94.7358C56.5728 90.9979 57.1836 87.0229 64.0569 87.0229C70.93 87.0229 71.5408 90.9979 71.5408 94.7358V107.314Z" fill="#F2F2F2"/>
<path fill-rule="evenodd" clip-rule="evenodd" d="M82.0203 87.5571C82.5704 87.5571 82.8758 87.8537 82.998 88.3581L85.167 96.9904C85.2281 97.287 85.4725 97.287 85.5335 96.9904L87.702 88.3581C87.8241 87.8537 88.1299 87.5571 88.6797 87.5571H95.0032C95.6141 87.5571 95.9195 87.8537 95.9195 88.447V107.433C95.9195 107.996 95.6141 108.323 95.0032 108.323H91.5817C91.0013 108.323 90.6651 107.996 90.6651 107.433V95.7449C90.6651 95.5371 90.3904 95.5073 90.3293 95.7151L87.3661 107.551C87.244 108.055 86.9078 108.323 86.3584 108.323H84.3422C83.7921 108.323 83.4563 108.055 83.3341 107.551L80.371 95.7151C80.3099 95.5073 80.0348 95.5371 80.0348 95.7449V107.433C80.0348 107.996 79.7294 108.323 79.1185 108.323H75.6974C75.0862 108.323 74.7808 107.996 74.7808 107.433V88.447C74.7808 87.8537 75.0862 87.5571 75.6974 87.5571H82.0203Z" fill="#F2F2F2"/>
<path fill-rule="evenodd" clip-rule="evenodd" d="M123.001 93.5494C123.001 92.9561 122.696 92.6595 122.085 92.6595H117.809C117.228 92.6595 116.892 92.3331 116.892 91.7697V88.4473C116.892 87.8537 117.228 87.5571 117.809 87.5571H133.449C134.06 87.5571 134.365 87.8537 134.365 88.4473V91.7697C134.365 92.3331 134.06 92.6595 133.449 92.6595H129.172C128.592 92.6595 128.255 92.9561 128.255 93.5494V107.433C128.255 107.996 127.95 108.323 127.339 108.323H123.918C123.337 108.323 123.001 107.996 123.001 107.433V93.5494Z" fill="#F2F2F2"/>
<path fill-rule="evenodd" clip-rule="evenodd" d="M146.691 95.8039C146.691 93.5195 146.538 92.1252 144.277 92.1252C142.017 92.1252 141.864 93.5195 141.864 95.8039V100.076C141.864 102.36 142.017 103.754 144.277 103.754C146.538 103.754 146.691 102.36 146.691 100.076V95.8039ZM151.944 101.648C151.944 103.606 151.517 108.857 144.277 108.857C137.037 108.857 136.61 103.606 136.61 101.648V94.2314C136.61 92.2735 137.037 87.0229 144.277 87.0229C151.517 87.0229 151.944 92.2735 151.944 94.2314V101.648Z" fill="#F2F2F2"/>
<path fill-rule="evenodd" clip-rule="evenodd" d="M108.835 95.8039C108.835 93.5195 108.682 92.1252 106.422 92.1252C104.161 92.1252 104.008 93.5195 104.008 95.8039V100.076C104.008 102.36 104.161 103.754 106.422 103.754C108.682 103.754 108.835 102.36 108.835 100.076V95.8039ZM114.089 101.648C114.089 103.606 113.661 108.857 106.422 108.857C99.182 108.857 98.7544 103.606 98.7544 101.648V94.2314C98.7544 92.2735 99.182 87.0229 106.422 87.0229C113.661 87.0229 114.089 92.2735 114.089 94.2314V101.648Z" fill="#F2F2F2"/>
<path fill-rule="evenodd" clip-rule="evenodd" d="M99.7557 127.706C99.2444 127.706 98.8296 127.303 98.8296 126.806V112.26C98.8296 111.763 99.2444 111.36 99.7557 111.36H151.053C151.565 111.36 151.98 111.763 151.98 112.26V118.472C151.98 118.751 151.942 119.026 151.942 119.298C151.942 126.806 147.436 127.706 142.472 127.706H99.7557Z" fill="url(#paint1_linear_0_52007)"/>
<path d="M99.0762 111.585H151.979V122.283C151.979 125.278 149.551 127.705 146.557 127.705H99.0762V111.585Z" fill="url(#paint2_linear_0_52007)"/>
<path fill-rule="evenodd" clip-rule="evenodd" d="M111.228 114.978C108.245 114.978 108.069 117.141 108.069 117.947V121.003C108.069 121.81 108.245 123.973 111.228 123.973C114.211 123.973 114.387 121.81 114.387 121.003V119.353C114.387 119.108 114.261 118.986 114.01 118.986H111.493C111.253 118.986 111.115 119.108 111.115 119.353V120.331C111.115 120.563 111.253 120.697 111.493 120.697H112.222C112.222 121.296 112.159 121.871 111.228 121.871C110.297 121.871 110.234 121.296 110.234 120.355V118.595C110.234 117.654 110.297 117.08 111.228 117.08C111.946 117.08 112.159 117.422 112.21 118.009C112.235 118.265 112.373 118.375 112.625 118.327L114.047 118.021C114.274 117.972 114.387 117.837 114.374 117.618C114.312 116.664 113.871 114.978 111.228 114.978ZM118.516 117.275C119.346 117.275 119.434 117.568 119.434 118.155V119.475C119.434 119.72 119.309 119.842 119.057 119.854H117.975C117.736 119.854 117.597 119.72 117.597 119.488V118.155C117.597 117.568 117.685 117.275 118.516 117.275ZM121.221 123.753C121.473 123.753 121.599 123.606 121.599 123.337V118.155C121.599 116.615 121.347 114.978 118.515 114.978C115.684 114.978 115.432 116.615 115.432 118.155V123.337C115.432 123.606 115.571 123.753 115.81 123.753H117.219C117.471 123.753 117.597 123.631 117.597 123.386V122.323C117.597 122.078 117.735 121.956 117.974 121.956H119.056C119.308 121.956 119.434 122.078 119.434 122.323V123.386C119.434 123.631 119.573 123.753 119.812 123.753H121.221ZM125.778 115.197C126.005 115.197 126.13 115.32 126.181 115.527L127.074 119.084C127.099 119.206 127.2 119.206 127.225 119.084L128.119 115.527C128.169 115.32 128.295 115.197 128.522 115.197H131.127C131.378 115.197 131.504 115.32 131.504 115.564V123.386C131.504 123.618 131.378 123.752 131.127 123.752H129.717C129.478 123.752 129.34 123.618 129.34 123.386V118.57C129.34 118.485 129.226 118.473 129.201 118.558L127.981 123.435C127.93 123.643 127.792 123.752 127.565 123.752H126.734C126.508 123.752 126.37 123.643 126.319 123.435L125.098 118.558C125.073 118.473 124.96 118.485 124.96 118.57V123.386C124.96 123.618 124.834 123.752 124.582 123.752H123.173C122.921 123.752 122.795 123.618 122.795 123.386V115.564C122.795 115.32 122.921 115.197 123.173 115.197H125.778ZM138.805 115.564C138.805 115.32 138.679 115.197 138.427 115.197H133.142C132.903 115.197 132.764 115.32 132.764 115.564V123.386C132.764 123.618 132.903 123.752 133.142 123.752H138.427C138.679 123.752 138.805 123.63 138.805 123.386V122.017C138.805 121.773 138.679 121.65 138.427 121.65H135.382C135.143 121.65 135.004 121.516 135.004 121.284V120.892C135.004 120.648 135.143 120.526 135.382 120.526H137.333C137.584 120.526 137.71 120.392 137.71 120.159V118.791C137.71 118.546 137.584 118.424 137.333 118.424H135.382C135.143 118.424 135.004 118.29 135.004 118.057V117.666C135.004 117.422 135.143 117.3 135.382 117.3H138.427C138.679 117.3 138.805 117.165 138.805 116.933V115.564ZM143.916 118.228C143.664 118.277 143.538 118.167 143.501 117.923C143.412 117.422 142.997 117.104 142.406 117.104C141.915 117.104 141.613 117.385 141.663 117.666C141.726 118.009 142.28 118.225 142.964 118.492C144.184 118.968 145.816 119.605 145.816 121.406C145.816 121.773 145.388 123.936 142.406 123.936C139.763 123.936 139.197 122.249 139.133 121.296C139.121 121.076 139.234 120.941 139.461 120.893L140.883 120.587C141.134 120.538 141.273 120.648 141.298 120.905C141.348 121.492 141.814 121.834 142.406 121.834C143.022 121.834 143.475 121.479 143.4 121.149C143.312 120.767 142.744 120.557 142.061 120.304C140.887 119.87 139.372 119.309 139.372 117.532C139.36 117.165 139.586 115.002 142.406 115.002C144.998 115.002 145.602 116.64 145.678 117.519C145.69 117.739 145.577 117.874 145.35 117.923L143.916 118.228ZM104.722 123.964C105.429 123.964 106.002 123.407 106.002 122.72C106.002 122.033 105.429 121.477 104.722 121.477C104.015 121.477 103.442 122.033 103.442 122.72C103.442 123.407 104.015 123.964 104.722 123.964Z" fill="#F9F9F9"/>
<defs>
<filter id="filter0_d_0_52007" x="26.2451" y="-1.8623" width="99.5381" height="97.9331" filterUnits="userSpaceOnUse" color-interpolation-filters="sRGB">
<feFlood flood-opacity="0" result="BackgroundImageFix"/>
<feColorMatrix in="SourceAlpha" type="matrix" values="0 0 0 0 0 0 0 0 0 0 0 0 0 0 0 0 0 0 127 0" result="hardAlpha"/>
<feOffset/>
<feGaussianBlur stdDeviation="12"/>
<feColorMatrix type="matrix" values="0 0 0 0 0.92549 0 0 0 0 0.184314 0 0 0 0 0.184314 0 0 0 1 0"/>
<feBlend mode="normal" in2="BackgroundImageFix" result="effect1_dropShadow_0_52007"/>
<feBlend mode="normal" in="SourceGraphic" in2="effect1_dropShadow_0_52007" result="shape"/>
</filter>
<linearGradient id="paint0_linear_0_52007" x1="50.2451" y1="22.1377" x2="50.2451" y2="72.0708" gradientUnits="userSpaceOnUse">
<stop stop-color="#E65D5D"/>
<stop offset="1" stop-color="#ED3030"/>
</linearGradient>
<linearGradient id="paint1_linear_0_52007" x1="98.8296" y1="111.36" x2="98.8296" y2="127.706" gradientUnits="userSpaceOnUse">
<stop stop-color="#F03232"/>
<stop offset="1" stop-color="#DB2727"/>
</linearGradient>
<linearGradient id="paint2_linear_0_52007" x1="99.0762" y1="111.585" x2="99.0762" y2="127.705" gradientUnits="userSpaceOnUse">
<stop stop-color="#F03232"/>
<stop offset="1" stop-color="#DB2727"/>
</linearGradient>
</defs>
</svg>
